<svg width="340" height="252" viewBox="0 0 340 252" fill="none" xmlns="http://www.w3.org/2000/svg">
<path d="M340 221.103H0V221.272H340V221.103Z" fill="#E6E6E6"/>
<path d="M84.8777 231.321H62.3561V231.489H84.8777V231.321Z" fill="#E6E6E6"/>
<path d="M55.2295 231.321H42.1803V231.489H55.2295V231.321Z" fill="#E6E6E6"/>
<path d="M143.173 233.806H130.124V233.975H143.173V233.806Z" fill="#E6E6E6"/>
<path d="M211.215 237.574H181.846V237.743H211.215V237.574Z" fill="#E6E6E6"/>
<path d="M175.794 237.574H171.489V237.743H175.794V237.574Z" fill="#E6E6E6"/>
<path d="M308.278 233.806H244.575V233.975H308.278V233.806Z" fill="#E6E6E6"/>
<path d="M161.16 190.983H29.8592C28.8306 190.981 27.8447 190.574 27.118 189.851C26.3913 189.128 25.9832 188.149 25.9832 187.127V3.82236C25.9921 2.80669 26.4042 1.83553 27.1299 1.11984C27.8557 0.404156 28.8364 0.00173991 29.8592 0H161.16C162.19 0 163.178 0.40627 163.906 1.12943C164.634 1.8526 165.043 2.83342 165.043 3.85613V187.127C165.043 188.15 164.634 189.131 163.906 189.854C163.178 190.577 162.19 190.983 161.16 190.983ZM29.8592 0.135066C28.8756 0.136855 27.933 0.526126 27.2382 1.21743C26.5434 1.90874 26.1532 2.8456 26.1532 3.82236V187.127C26.1532 188.104 26.5434 189.041 27.2382 189.732C27.933 190.423 28.8756 190.813 29.8592 190.814H161.16C162.145 190.813 163.088 190.424 163.784 189.732C164.48 189.041 164.871 188.104 164.873 187.127V3.82236C164.871 2.84498 164.48 1.90814 163.784 1.21702C163.088 0.525906 162.145 0.136852 161.16 0.135066H29.8592Z" fill="#E6E6E6"/>
<path d="M308.251 190.983H176.943C175.913 190.981 174.927 190.575 174.199 189.852C173.471 189.129 173.062 188.149 173.06 187.127V3.82236C173.07 2.80607 173.484 1.83492 174.211 1.11942C174.938 0.40392 175.919 0.00172094 176.943 0H308.251C309.272 0.00351475 310.251 0.406717 310.975 1.12221C311.7 1.83771 312.111 2.80785 312.12 3.82236V187.127C312.12 188.147 311.713 189.126 310.987 189.849C310.262 190.572 309.278 190.98 308.251 190.983ZM176.943 0.135066C175.958 0.136852 175.015 0.525906 174.319 1.21702C173.623 1.90814 173.232 2.84498 173.23 3.82236V187.127C173.232 188.104 173.623 189.041 174.319 189.732C175.015 190.424 175.958 190.813 176.943 190.814H308.251C309.235 190.813 310.178 190.424 310.874 189.732C311.57 189.041 311.962 188.104 311.963 187.127V3.82236C311.962 2.84498 311.57 1.90814 310.874 1.21702C310.178 0.525906 309.235 0.136852 308.251 0.135066H176.943Z" fill="#E6E6E6"/>
<path d="M181.832 163.416H166.879V222.325H181.832V163.416Z" fill="#E0E0E0"/>
<path d="M178.99 222.325H181.832V214.302H176.012L178.99 222.325Z" fill="#FAFAFA"/>
<path d="M116.307 163.416H101.353V222.325H116.307V163.416Z" fill="#E0E0E0"/>
<path d="M181.832 163.416H113.832V217.402H181.832V163.416Z" fill="#FAFAFA"/>
<path d="M179.364 166.07V180.353H116.28V166.07H179.343H179.364ZM179.608 165.807H116.035V180.61H179.629V165.807H179.608Z" fill="#E0E0E0"/>
<path d="M116.667 222.325H113.832V214.302H119.646L116.667 222.325Z" fill="#FAFAFA"/>
<path d="M146.329 173.208C146.329 173.504 146.417 173.792 146.583 174.038C146.748 174.283 146.982 174.474 147.257 174.587C147.532 174.7 147.834 174.73 148.125 174.672C148.417 174.615 148.685 174.473 148.895 174.264C149.105 174.055 149.248 173.789 149.306 173.5C149.364 173.21 149.334 172.91 149.22 172.637C149.107 172.365 148.914 172.132 148.667 171.968C148.42 171.804 148.129 171.716 147.832 171.716C147.434 171.716 147.051 171.873 146.769 172.153C146.488 172.433 146.329 172.813 146.329 173.208Z" fill="#E6E6E6"/>
<path d="M179.364 183.264V197.547H116.28V183.264H179.343H179.364ZM179.608 183.008H116.035V197.811H179.629V183.014L179.608 183.008Z" fill="#E0E0E0"/>
<path d="M146.329 190.443C146.329 190.738 146.417 191.027 146.583 191.272C146.748 191.518 146.982 191.709 147.257 191.822C147.532 191.935 147.834 191.964 148.125 191.907C148.417 191.849 148.685 191.707 148.895 191.498C149.105 191.29 149.248 191.024 149.306 190.734C149.364 190.445 149.334 190.144 149.22 189.872C149.107 189.599 148.914 189.366 148.667 189.202C148.42 189.038 148.129 188.95 147.832 188.95C147.434 188.95 147.051 189.108 146.769 189.388C146.488 189.667 146.329 190.047 146.329 190.443Z" fill="#E6E6E6"/>
<path d="M179.364 200.465V214.755H116.28V200.465H179.343H179.364ZM179.608 200.201H116.035V215.011H179.629V200.201H179.608Z" fill="#E0E0E0"/>
<path d="M146.329 207.61C146.331 207.905 146.42 208.193 146.586 208.437C146.752 208.682 146.987 208.872 147.262 208.984C147.536 209.096 147.838 209.124 148.129 209.066C148.42 209.008 148.688 208.865 148.897 208.656C149.107 208.447 149.249 208.181 149.306 207.892C149.364 207.602 149.334 207.303 149.22 207.03C149.106 206.758 148.913 206.525 148.666 206.362C148.419 206.198 148.129 206.111 147.832 206.111C147.634 206.111 147.438 206.149 147.255 206.225C147.073 206.3 146.907 206.411 146.767 206.55C146.627 206.689 146.517 206.855 146.442 207.037C146.367 207.218 146.328 207.413 146.329 207.61Z" fill="#E6E6E6"/>
<path d="M107.175 129.204H92.2213V222.332H107.175V129.204Z" fill="#E0E0E0"/>
<path d="M104.332 222.325H107.174V214.302H101.36L104.332 222.325Z" fill="#FAFAFA"/>
<path d="M51.2927 129.204H36.3395V222.332H51.2927V129.204Z" fill="#E0E0E0"/>
<path d="M107.174 129.204H48.8098V217.409H107.174V129.204Z" fill="#FAFAFA"/>
<path d="M104.659 131.689V151.659H51.3262V131.689H104.659ZM104.971 131.385H50.9998V151.949H104.958V131.392L104.971 131.385Z" fill="#E0E0E0"/>
<path d="M104.659 154.097V207.063H79.2545V154.097H104.659ZM104.972 153.786H78.9485V207.373H104.972V153.786Z" fill="#E0E0E0"/>
<path d="M76.731 154.097V207.063H51.3262V154.097H76.731ZM77.037 153.786H50.9998V207.373H77.0234V153.786H77.037Z" fill="#E0E0E0"/>
<path d="M51.6522 222.325H48.8098V214.302H54.6306L51.6522 222.325Z" fill="#FAFAFA"/>
<path d="M76.4863 141.684C76.4849 141.981 76.5723 142.271 76.7374 142.519C76.9024 142.766 77.1377 142.959 77.4135 143.074C77.6892 143.188 77.9929 143.219 78.2862 143.162C78.5795 143.105 78.8491 142.963 79.0609 142.753C79.2727 142.544 79.4172 142.277 79.476 141.986C79.5348 141.695 79.5053 141.393 79.3912 141.119C79.2772 140.844 79.0837 140.61 78.8353 140.445C78.5869 140.28 78.2947 140.192 77.9959 140.192C77.5967 140.192 77.2137 140.349 76.9308 140.628C76.6479 140.908 76.4881 141.288 76.4863 141.684Z" fill="#E6E6E6"/>
<path d="M81.8719 179.32C81.8719 179.617 81.9606 179.907 82.1268 180.154C82.293 180.401 82.5291 180.593 82.8054 180.706C83.0816 180.819 83.3855 180.849 83.6785 180.79C83.9715 180.732 84.2405 180.588 84.4514 180.378C84.6622 180.168 84.8054 179.9 84.8629 179.609C84.9204 179.317 84.8895 179.016 84.7742 178.742C84.6589 178.468 84.4644 178.234 84.2152 178.07C83.9661 177.906 83.6736 177.82 83.3747 177.821C83.1768 177.821 82.9808 177.86 82.798 177.935C82.6153 178.011 82.4493 178.121 82.3096 178.26C82.17 178.4 82.0595 178.565 81.9843 178.747C81.9092 178.929 81.871 179.124 81.8719 179.32Z" fill="#E6E6E6"/>
<path d="M71.1076 179.32C71.1089 179.615 71.1982 179.903 71.3641 180.148C71.5301 180.392 71.7652 180.582 72.04 180.694C72.3147 180.806 72.6166 180.835 72.9077 180.776C73.1988 180.718 73.4659 180.575 73.6754 180.366C73.8849 180.157 74.0273 179.892 74.0848 179.602C74.1422 179.313 74.112 179.013 73.9981 178.741C73.8842 178.468 73.6915 178.236 73.4446 178.072C73.1976 177.908 72.9073 177.821 72.6104 177.821C72.4124 177.821 72.2165 177.86 72.0337 177.935C71.8509 178.011 71.6849 178.121 71.5453 178.261C71.4057 178.4 71.2951 178.565 71.22 178.747C71.1449 178.929 71.1067 179.124 71.1076 179.32Z" fill="#E6E6E6"/>
<path d="M69.4074 103.238H63.1038C63.6847 106.274 64.0505 109.348 64.1986 112.436C64.1986 115.812 59.3978 129.204 66.2386 129.204C73.0794 129.204 68.2786 115.846 68.2786 112.436C68.4379 109.347 68.8151 106.274 69.4074 103.238Z" fill="#E0E0E0"/>
<path d="M45.4243 116.933V120.985C45.4315 123.157 46.3035 125.239 47.8501 126.775C49.3967 128.311 51.4923 129.177 53.6795 129.184H57.7595C59.9467 129.177 62.0423 128.311 63.5889 126.775C65.1355 125.239 66.0075 123.157 66.0147 120.985V116.933H45.4243Z" fill="#F5F5F5"/>
<path d="M133.055 154.826C133.055 159.553 138.38 163.416 144.887 163.416H150.763C157.27 163.416 162.595 159.553 162.595 154.826H133.055Z" fill="#E0E0E0"/>
<path d="M288.735 147.897C285.172 150.788 280.248 156.075 275.747 163.518C272.741 168.474 270.932 173.647 270.137 180.522C270.137 172.756 270.184 164.416 270.212 156.541C271.116 154.515 273.183 149.842 274.666 146.155C279.609 133.844 281.466 130.811 285.906 120.195C291.842 106.013 297.922 89.2245 296.181 90.5684C292.631 93.3035 279.031 118.595 277.562 122.214C273.559 131.874 271.084 142.091 270.225 152.503C270.225 145.074 270.28 138.321 270.307 133.08C270.402 115.988 270.694 110.47 270.837 108.769C271.388 107.904 272.034 106.898 272.415 106.358C275.611 101.765 276.842 97.862 279.847 91.0141C284.118 81.3232 287.79 64.109 286.715 64.9734C282.241 68.5932 278.718 76.3595 274.081 86.2666C269.443 96.1737 270.769 101.867 269.851 110.322C269.661 111.983 269.511 118.25 269.402 126.928C268.206 117.676 265.948 111.585 261.834 106.047C256.775 99.2329 251.879 94.6339 248.288 92.2297C244.698 89.8256 254.49 106.56 259.168 113.84C263.337 120.35 267.179 126.084 269.368 131.737C269.253 143.507 269.198 158.405 269.198 172.256C268.124 165.949 266.37 159.148 264.03 153.887C261.215 147.566 256.89 137.868 253.443 134.58C252.62 133.789 257.047 152.651 259.889 157.662C262.732 162.673 264.819 167.407 266.608 170.251C267.022 170.926 268.41 173.472 269.198 174.944C269.198 191.875 269.294 206.813 269.443 211.898H270.178C270.13 210.588 270.116 201.971 270.137 190.571C271.912 184.385 275.964 177.321 279.31 170.879C282.955 163.902 292.298 145.027 288.735 147.897Z" fill="#E0E0E0"/>
<path d="M280.459 222.325H259.148L257.536 201.579H282.071L280.459 222.325Z" fill="#F0F0F0"/>
<path d="M283.655 203.997H255.945L255.156 196.994H284.45L283.655 203.997Z" fill="#F5F5F5"/>
<path d="M84.4971 13.8442H46.3831V55.4108H84.4971V13.8442Z" fill="#E0E0E0"/>
<path d="M88.6243 13.8442H49.2523V55.4108H88.6243V13.8442Z" fill="#F5F5F5"/>
<path d="M85.3263 52.1354V17.1196L52.5503 17.1196V52.1354H85.3263Z" fill="white"/>
<path d="M77.3772 43.6398V25.6017H60.4928V43.6398H77.3772Z" fill="#F5F5F5"/>
<path d="M278.833 18.6863H243.426V57.3017H278.833V18.6863Z" fill="#E0E0E0"/>
<path d="M282.669 18.6863H246.099V57.3017H282.669V18.6863Z" fill="#F5F5F5"/>
<path d="M279.609 54.2559V21.7321L249.165 21.7321V54.2559H279.609Z" fill="white"/>
<path d="M264.384 47.4284C269.631 47.4284 273.884 43.2045 273.884 37.994C273.884 32.7836 269.631 28.5597 264.384 28.5597C259.138 28.5597 254.884 32.7836 254.884 37.994C254.884 43.2045 259.138 47.4284 264.384 47.4284Z" fill="#F5F5F5"/>
<path d="M124.093 38.6288H95.8183V69.4644H124.093V38.6288Z" fill="#E0E0E0"/>
<path d="M127.153 38.6288H97.9471V69.4644H127.153V38.6288Z" fill="#F5F5F5"/>
<path d="M124.705 67.0332V41.06H100.395V67.0332H124.705Z" fill="white"/>
<path d="M112.554 47.4757L105.903 58.9158H119.204L112.554 47.4757Z" fill="#F5F5F5"/>
<path d="M170 251.601C242.816 251.601 301.845 248.178 301.845 243.956C301.845 239.734 242.816 236.311 170 236.311C97.1838 236.311 38.1547 239.734 38.1547 243.956C38.1547 248.178 97.1838 251.601 170 251.601Z" fill="#F5F5F5"/>
<path d="M237.489 73.226L230.743 70.5247C230.743 70.5247 221.842 86.6448 219.292 87.462C215.824 88.5695 208.644 91.649 204.387 92.1893C203.809 92.8646 202.863 94.9649 202.952 95.728C208.671 97.6257 221.237 95.1067 223.93 93.1212C230.057 88.6168 237.489 73.226 237.489 73.226Z" fill="#C78E6E"/>
<path d="M239.564 69.559C240.822 74.1715 234.008 83.4505 234.008 83.4505L225.08 78.4801C225.08 78.4801 226.752 74.6645 228.792 70.7813C232.063 64.5075 238.129 64.2981 239.564 69.559Z" fill="#FDBF21"/>
<path opacity="0.2" d="M239.564 69.559C240.822 74.1715 234.008 83.4505 234.008 83.4505L225.08 78.4801C225.08 78.4801 226.752 74.6645 228.792 70.7813C232.063 64.5075 238.129 64.2981 239.564 69.559Z" fill="black"/>
<path opacity="0.2" d="M228.622 80.4655L232.138 82.424L232.757 71.7065C230.71 73.2665 229.268 77.9668 228.622 80.4655Z" fill="black"/>
<path d="M233.688 66.0878C233.688 66.0878 226.739 81.4448 230.791 110.038H258.175C258.61 105.865 257.169 85.4968 262.384 65.8312C259.38 65.2481 256.341 64.8624 253.286 64.6763C249.411 64.4533 245.526 64.4533 241.651 64.6763C238.965 64.9472 236.303 65.4191 233.688 66.0878Z" fill="#FDBF21"/>
<path opacity="0.2" d="M233.688 66.0878C233.688 66.0878 226.739 81.4448 230.791 110.038H258.175C258.61 105.865 257.169 85.4968 262.384 65.8312C259.38 65.2481 256.341 64.8624 253.286 64.6763C249.411 64.4533 245.526 64.4533 241.651 64.6763C238.965 64.9472 236.303 65.4191 233.688 66.0878Z" fill="black"/>
<g style="mix-blend-mode:multiply">
<path d="M227.337 244.564C227.297 245.293 237.68 245.881 250.525 245.881C263.371 245.881 273.829 245.293 273.87 244.564C273.911 243.834 263.534 243.254 250.682 243.254C237.83 243.254 227.385 243.841 227.337 244.564Z" fill="#E8ECF1"/>
</g>
<path d="M245.616 225.4L240.76 227.267L244.943 238.001L249.8 236.133L245.616 225.4Z" fill="#C78E6E"/>
<path d="M267.274 239.371H262.153L260.276 227.6H265.397L267.274 239.371Z" fill="#C78E6E"/>
<path d="M261.799 238.783H267.552C267.652 238.783 267.749 238.819 267.824 238.883C267.9 238.947 267.951 239.036 267.967 239.134L268.708 243.652C268.724 243.766 268.715 243.881 268.681 243.99C268.648 244.1 268.592 244.201 268.515 244.287C268.439 244.373 268.345 244.441 268.24 244.488C268.135 244.535 268.021 244.558 267.906 244.557C265.9 244.523 264.934 244.402 262.405 244.402C260.847 244.402 257.645 244.564 255.482 244.564C253.32 244.564 253.177 242.457 254.068 242.261C258.066 241.403 259.617 240.235 260.949 239.1C261.184 238.895 261.487 238.783 261.799 238.783Z" fill="black"/>
<path d="M244.799 237.041L250.239 235.46C250.336 235.433 250.44 235.44 250.533 235.479C250.625 235.518 250.702 235.588 250.749 235.677L252.789 239.729C252.837 239.831 252.861 239.943 252.86 240.056C252.86 240.169 252.834 240.281 252.786 240.383C252.737 240.485 252.667 240.576 252.579 240.648C252.492 240.721 252.389 240.773 252.279 240.802C250.301 241.343 248.975 241.673 246.499 242.389C244.793 242.882 243.052 243.686 241.365 244.219C240.196 244.591 237.449 244.604 236.027 244.604C233.926 244.604 233.457 242.403 234.361 242.302C236.639 242.052 236.945 242.166 238.203 241.538C240.262 240.645 242.127 239.365 243.698 237.77C243.994 237.435 244.374 237.183 244.799 237.041Z" fill="black"/>
<path d="M205.244 92.1622L199.614 89.8188L197.295 96.0184C199.603 96.3675 201.95 96.3675 204.258 96.0184L205.244 92.1622Z" fill="#C78E6E"/>
<path d="M195.424 89.6567L195.275 93.7763L197.294 96.0048L199.613 89.8053L195.424 89.6567Z" fill="#C78E6E"/>
<path d="M246.282 226.311L241.411 228.179L243.568 233.73L248.44 231.862L246.282 226.311Z" fill="#CF6F64"/>
<path d="M265.397 227.6H260.276L261.249 233.671H266.369L265.397 227.6Z" fill="#CF6F64"/>
<path opacity="0.2" d="M229.921 102.306C230.023 103.528 230.139 104.777 230.289 106.061L250.648 99.4963C253.827 98.5605 256.59 96.5762 258.481 93.8709C258.563 92.0677 258.665 90.17 258.821 88.1913C258.889 87.2324 258.971 86.2464 259.059 85.2469C259.148 84.2474 259.27 83.1399 259.399 82.0728L229.921 102.306Z" fill="black"/>
<path d="M236.572 80.1549L235.892 80.0739C236.293 76.6972 238.83 74.0364 241.502 74.1039V74.7793C239.163 74.732 236.933 77.1294 236.572 80.1549Z" fill="white"/>
<path d="M240.197 86.3882H240.081V85.7128C242.42 85.8006 244.617 83.3762 244.977 80.3575L245.657 80.4385C245.297 83.7409 242.842 86.3882 240.197 86.3882Z" fill="white"/>
<path d="M252.906 51.6627C251.947 55.3838 250.818 62.1979 253.286 64.6763C253.286 64.6763 251.559 68.4514 244.603 68.4514C238.245 68.4514 241.652 64.6763 241.652 64.6763C245.881 63.6903 245.956 60.6243 245.398 57.7204L252.906 51.6627Z" fill="#C78E6E"/>
<path d="M249.845 54.1345L245.405 57.7205C245.542 58.3878 245.622 59.0656 245.643 59.7464C246.942 61.0296 249.546 57.7812 249.811 56.1199C249.946 55.4659 249.957 54.7927 249.845 54.1345Z" fill="#CF6F64"/>
<path d="M237.769 51.6155C238.078 52.1474 238.494 52.6102 238.991 52.9751C239.488 53.3399 240.056 53.599 240.659 53.736C242.291 54.094 243.107 52.6015 242.658 51.1023C242.257 49.7516 240.917 47.935 239.258 48.2456C238.902 48.3183 238.57 48.4746 238.288 48.7012C238.005 48.9279 237.782 49.2184 237.636 49.5484C237.49 49.8784 237.426 50.2382 237.449 50.5979C237.472 50.9576 237.582 51.3065 237.769 51.6155Z" fill="#CF6F64"/>
<path d="M240.468 39.7094C237.925 40.8643 237.027 50.8997 240.223 52.3854C243.419 53.8711 245.282 37.5146 240.468 39.7094Z" fill="black"/>
<path d="M253.681 46.0642C253.069 51.1022 253.001 54.0669 250.281 56.6466C249.438 57.5027 248.373 58.1108 247.204 58.4038C246.036 58.6968 244.808 58.6633 243.657 58.307C242.506 57.9506 241.476 57.2854 240.682 56.3846C239.888 55.4838 239.36 54.3826 239.156 53.2025C238.333 48.6778 239.469 41.2019 244.555 39.1961C245.624 38.728 246.799 38.5522 247.959 38.6871C249.12 38.822 250.222 39.2626 251.153 39.9632C252.084 40.6639 252.809 41.599 253.254 42.6718C253.698 43.7445 253.846 44.9158 253.681 46.0642Z" fill="#C78E6E"/>
<path d="M245.324 42.3162C249.091 41.364 251.858 40.7156 250.866 43.8289C249.553 47.9889 247.976 52.0139 250.09 52.1962C251.382 52.311 257.094 49.9069 256.367 47.4689C255.734 45.3484 258.407 44.7676 258.883 43.6938C260.644 39.8039 255.605 40.3172 256.503 37.9535C257.4 35.5899 252.423 31.781 249.703 33.6787C245.276 36.7447 237.68 36.6974 241.672 31.6527C244.535 28.0532 239.428 28.7893 239.428 28.7893C239.428 28.7893 242.515 30.606 237.32 33.4153C231.826 36.4138 236.864 44.4705 245.324 42.3162Z" fill="black"/>
<path d="M255.68 51.6155C254.936 52.6842 253.819 53.4401 252.545 53.736C250.865 54.094 250.219 52.6015 250.852 51.1023C251.416 49.7516 252.967 47.935 254.571 48.2456C256.176 48.5563 256.543 50.2919 255.68 51.6155Z" fill="#C78E6E"/>
<path d="M230.791 110.038C230.791 110.038 226.195 150.896 225.834 166.401C225.467 182.528 241.413 232.847 241.413 232.847L249.573 229.47C249.573 229.47 240.053 183.494 241.413 167.657C242.855 150.389 248.811 110.065 248.811 110.065L230.791 110.038Z" fill="#FDBF21"/>
<path opacity="0.2" d="M242.215 121.255C238.55 128.806 241.019 143.737 243.004 152.584C243.759 146.337 244.657 139.557 245.507 133.283C245.425 123.639 244.67 116.19 242.215 121.255Z" fill="black"/>
<path d="M249.213 226.796C249.253 226.796 250.178 229.376 250.178 229.376L240.767 233.306L239.285 230.564L249.213 226.796Z" fill="#FDBF21"/>
<path d="M240.509 110.038C240.509 110.038 244.024 148.897 246.35 163.45C248.907 179.395 258.93 232.496 258.93 232.496H268.307C268.307 232.496 262.69 180.684 261.63 164.895C260.474 147.769 258.175 110.038 258.175 110.038H240.509Z" fill="#FDBF21"/>
<path d="M268.45 230.071C268.491 230.071 268.763 232.671 268.763 232.671H258.454L257.72 229.686L268.45 230.071Z" fill="#FDBF21"/>
<path opacity="0.2" d="M264.86 226.992C264.839 226.992 264.818 226.985 264.802 226.971C264.786 226.957 264.775 226.938 264.772 226.918C264.717 226.445 259.651 179.644 258.699 165.463C257.666 150.079 255.585 115.954 255.565 115.61C255.564 115.599 255.565 115.587 255.569 115.577C255.573 115.566 255.578 115.556 255.586 115.548C255.594 115.54 255.603 115.533 255.613 115.529C255.624 115.524 255.635 115.522 255.646 115.522C255.669 115.522 255.69 115.53 255.707 115.545C255.723 115.56 255.733 115.581 255.735 115.603C255.735 115.947 257.836 150.045 258.869 165.456C259.821 179.638 264.887 226.404 264.935 226.911C264.937 226.922 264.937 226.933 264.934 226.944C264.931 226.955 264.926 226.966 264.919 226.975C264.912 226.983 264.903 226.991 264.893 226.996C264.883 227.001 264.872 227.005 264.86 227.005V226.992Z" fill="black"/>
<path d="M245.902 47.4689C245.902 47.8809 245.643 48.2118 245.371 48.2118C245.099 48.2118 244.902 47.8809 244.929 47.4689C244.957 47.057 245.188 46.7261 245.46 46.7261C245.732 46.7261 245.929 47.0637 245.902 47.4689Z" fill="black"/>
<path d="M241.237 47.4689C241.237 47.8809 240.972 48.2118 240.706 48.2118C240.441 48.2118 240.237 47.8809 240.258 47.4689C240.278 47.057 240.523 46.7261 240.795 46.7261C241.067 46.7261 241.264 47.0637 241.237 47.4689Z" fill="black"/>
<path d="M242.705 47.6783C242.138 48.9363 241.406 50.1147 240.529 51.1833C241.209 51.8586 242.481 51.548 242.481 51.548L242.705 47.6783Z" fill="#DF5753"/>
<path d="M242.828 53.2701C242.812 53.2701 242.797 53.2669 242.782 53.2607C242.768 53.2545 242.755 53.2455 242.744 53.2341C242.733 53.2227 242.725 53.2092 242.719 53.1945C242.714 53.1798 242.712 53.1641 242.713 53.1485C242.714 53.1157 242.729 53.0847 242.753 53.0621C242.777 53.0395 242.809 53.0269 242.842 53.0269C243.362 53.0305 243.876 52.9183 244.347 52.6986C244.818 52.4789 245.233 52.1573 245.562 51.7573C245.585 51.7369 245.616 51.7256 245.647 51.7256C245.678 51.7256 245.708 51.7369 245.732 51.7573C245.754 51.78 245.766 51.8102 245.766 51.8417C245.766 51.8732 245.754 51.9035 245.732 51.9262C245.38 52.3512 244.936 52.6926 244.433 52.9251C243.931 53.1577 243.383 53.2755 242.828 53.2701Z" fill="black"/>
<path d="M246.731 46.2264C246.698 46.243 246.662 46.2516 246.625 46.2516C246.589 46.2516 246.553 46.243 246.52 46.2264C246.266 46.063 245.976 45.9615 245.675 45.9298C245.374 45.8981 245.069 45.9372 244.786 46.044C244.758 46.0577 244.728 46.0658 244.698 46.0678C244.667 46.0698 244.636 46.0656 244.607 46.0555C244.578 46.0455 244.551 46.0297 244.528 46.0092C244.505 45.9886 244.486 45.9637 244.473 45.936C244.448 45.8759 244.447 45.8084 244.472 45.7478C244.496 45.6873 244.543 45.6385 244.602 45.6118C244.958 45.4676 245.343 45.4107 245.726 45.446C246.108 45.4813 246.476 45.6077 246.799 45.8144C246.825 45.832 246.847 45.8546 246.864 45.8808C246.882 45.907 246.893 45.9364 246.899 45.9672C246.905 45.998 246.904 46.0296 246.898 46.0601C246.891 46.0907 246.878 46.1197 246.86 46.1453C246.826 46.184 246.781 46.2122 246.731 46.2264Z" fill="black"/>
<path d="M239.435 44.8757C239.398 44.867 239.365 44.8483 239.339 44.8217C239.317 44.7997 239.299 44.7734 239.286 44.7444C239.274 44.7154 239.268 44.6843 239.268 44.6529C239.268 44.6214 239.274 44.5903 239.286 44.5613C239.299 44.5323 239.317 44.506 239.339 44.484C239.6 44.1937 239.925 43.9671 240.288 43.8219C240.651 43.6766 241.043 43.6166 241.434 43.6466C241.465 43.6514 241.495 43.6625 241.522 43.6793C241.549 43.6961 241.572 43.7181 241.589 43.7441C241.607 43.77 241.62 43.7993 241.625 43.8302C241.631 43.8611 241.631 43.8928 241.624 43.9235C241.61 43.986 241.572 44.0411 241.52 44.0784C241.467 44.1157 241.403 44.1327 241.339 44.1261C241.03 44.1068 240.72 44.1575 240.434 44.2745C240.148 44.3915 239.892 44.5717 239.686 44.8014C239.655 44.8356 239.615 44.8606 239.571 44.8737C239.526 44.8869 239.479 44.8875 239.435 44.8757Z" fill="black"/>
<path d="M265.016 72.4764L257.944 70.6058C257.944 70.6058 251.008 87.5633 248.553 88.6641C245.221 90.1768 236.783 95.4174 233.192 97.8958C232.995 98.74 233.151 100.975 233.6 101.59C239.72 100.482 251.437 96.0049 253.885 93.729C259.467 88.5358 265.016 72.4764 265.016 72.4764Z" fill="#C78E6E"/>
<path d="M260.079 239.674C259.734 239.702 259.39 239.608 259.106 239.411C259.019 239.333 258.953 239.233 258.916 239.121C258.879 239.01 258.872 238.891 258.896 238.776C258.9 238.705 258.924 238.635 258.964 238.576C259.005 238.516 259.061 238.469 259.127 238.439C259.698 238.148 261.296 239.154 261.48 239.269C261.5 239.282 261.515 239.3 261.524 239.322C261.532 239.344 261.534 239.368 261.527 239.391C261.521 239.414 261.509 239.436 261.493 239.454C261.476 239.472 261.455 239.485 261.432 239.492C260.989 239.6 260.535 239.661 260.079 239.674ZM259.399 238.621C259.347 238.61 259.294 238.61 259.242 238.621C259.216 238.634 259.195 238.655 259.18 238.68C259.166 238.705 259.159 238.734 259.161 238.763C259.143 238.841 259.146 238.923 259.169 239C259.193 239.077 259.237 239.147 259.297 239.202C259.562 239.438 260.228 239.465 261.106 239.296C260.583 238.955 259.995 238.725 259.378 238.621H259.399Z" fill="#FDBF21"/>
<path d="M261.399 239.492C261.381 239.498 261.362 239.498 261.344 239.492C260.834 239.208 259.876 238.094 260.018 237.527C260.04 237.437 260.091 237.357 260.164 237.299C260.236 237.242 260.327 237.21 260.42 237.209C260.511 237.197 260.604 237.205 260.692 237.232C260.78 237.259 260.861 237.304 260.93 237.365C261.494 237.844 261.528 239.317 261.528 239.391C261.531 239.413 261.527 239.436 261.516 239.455C261.505 239.475 261.488 239.49 261.467 239.499C261.444 239.503 261.42 239.501 261.399 239.492ZM260.488 237.432H260.44C260.284 237.432 260.263 237.52 260.256 237.554C260.175 237.885 260.78 238.729 261.283 239.127C261.281 238.557 261.103 238.001 260.773 237.534C260.694 237.465 260.592 237.429 260.488 237.432Z" fill="#FDBF21"/>
<path d="M242.025 238.83C241.609 238.974 241.156 238.974 240.74 238.83C240.645 238.779 240.565 238.706 240.507 238.616C240.449 238.526 240.414 238.424 240.407 238.317C240.398 238.25 240.407 238.182 240.432 238.12C240.457 238.057 240.497 238.002 240.55 237.959C241.094 237.473 243.317 237.959 243.569 238.054C243.593 238.06 243.614 238.074 243.629 238.093C243.644 238.113 243.651 238.137 243.65 238.162C243.651 238.187 243.645 238.212 243.632 238.234C243.618 238.255 243.599 238.273 243.576 238.283C243.075 238.508 242.556 238.691 242.025 238.83ZM240.917 238.027C240.839 238.042 240.767 238.077 240.706 238.128C240.684 238.144 240.668 238.166 240.658 238.191C240.648 238.216 240.646 238.243 240.652 238.27C240.656 238.341 240.678 238.409 240.716 238.469C240.754 238.53 240.807 238.579 240.869 238.614C241.23 238.803 242.066 238.655 243.147 238.202C242.419 238.02 241.665 237.96 240.917 238.027Z" fill="#FDBF21"/>
<path d="M243.556 238.283H243.501C242.821 238.162 241.461 237.385 241.42 236.804C241.42 236.669 241.482 236.48 241.808 236.372C241.918 236.333 242.035 236.317 242.152 236.324C242.269 236.331 242.383 236.361 242.488 236.413C243.222 236.771 243.61 238.067 243.63 238.128C243.635 238.148 243.635 238.17 243.629 238.19C243.623 238.21 243.612 238.228 243.596 238.243C243.586 238.259 243.572 238.273 243.556 238.283ZM241.944 236.575H241.876C241.665 236.649 241.665 236.737 241.665 236.764C241.665 237.115 242.651 237.757 243.338 237.973C243.18 237.43 242.845 236.955 242.386 236.622C242.249 236.553 242.092 236.536 241.944 236.575Z" fill="#FDBF21"/>
<path d="M233.77 97.4974L226.677 100.739L225.854 102.765L228.472 104.514C228.472 104.514 233.368 103.987 234.762 100.861L233.77 97.4974Z" fill="#C78E6E"/>
<path d="M234.069 101.705C233.91 100.351 233.46 99.0476 232.749 97.8823L233.871 97.0449C234.715 98.3876 235.254 99.8973 235.449 101.468L234.069 101.705Z" fill="black"/>
<path d="M235.28 98.4563C235.43 98.6905 235.503 98.9649 235.491 99.2422C235.478 99.5194 235.38 99.7861 235.209 100.006C235.038 100.226 234.804 100.388 234.537 100.47C234.27 100.553 233.984 100.552 233.718 100.468C233.452 100.383 233.218 100.219 233.049 99.9982C232.88 99.7772 232.784 99.5098 232.773 99.2325C232.762 98.9552 232.838 98.6813 232.99 98.4482C233.141 98.215 233.362 98.034 233.621 97.9296C233.911 97.7825 234.249 97.7553 234.559 97.854C234.87 97.9526 235.129 98.1691 235.28 98.4563Z" fill="black"/>
<path d="M221.884 103.359L222.829 104.305L229.194 101.603L226.678 100.739L221.884 103.359Z" fill="#C78E6E"/>
<path opacity="0.2" d="M249.213 226.796C249.253 226.796 250.178 229.376 250.178 229.376L240.767 233.306L239.285 230.564L249.213 226.796Z" fill="black"/>
<path opacity="0.2" d="M268.45 230.071C268.491 230.071 268.763 232.671 268.763 232.671H258.454L257.72 229.686L268.45 230.071Z" fill="black"/>
<path d="M266.859 70.5315C268.729 76.5216 261.419 84.7134 261.419 84.7134L251.321 80.6209C252.518 77.1586 253.898 73.7615 255.456 70.4437C258.557 63.8052 264.969 64.4873 266.859 70.5315Z" fill="#FDBF21"/>
<path opacity="0.2" d="M266.859 70.5315C268.729 76.5216 261.419 84.7134 261.419 84.7134L251.321 80.6209C252.518 77.1586 253.898 73.7615 255.456 70.4437C258.557 63.8052 264.969 64.4873 266.859 70.5315Z" fill="black"/>
<path d="M166.517 10.5149H162.172V11.2105H166.517V10.5149Z" fill="#FDBF21"/>
<path d="M222.766 38.0457L222.24 49.6361L222.94 49.6674L223.466 38.077L222.766 38.0457Z" fill="#FDBF21"/>
<path d="M221.415 13.6349H141.175L133.708 179.577H213.948L221.415 13.6349Z" fill="#FDBF21"/>
<path opacity="0.56" d="M219.02 15.9175H138.78L131.314 181.859H211.554L219.02 15.9175Z" fill="#FAFAFA"/>
<path opacity="0.07" d="M216.627 18.1934H136.387L128.914 184.135H209.154L216.627 18.1934Z" fill="#FDBF21"/>
<path d="M207.495 90.5685H139.005L138.434 103.265H206.924L207.495 90.5685Z" fill="white"/>
<path d="M176.669 81.3029H139.419L139.167 86.9824H176.418L176.669 81.3029Z" fill="#FDBF21"/>
<path d="M205.951 124.835H137.461L136.89 137.531H205.38L205.951 124.835Z" fill="white"/>
<path opacity="0.47" d="M193.391 154.677H147.334L146.648 169.893H192.704L193.391 154.677Z" fill="#FDBF21"/>
<path d="M190.311 172.256H144.255C144.234 172.261 144.213 172.261 144.193 172.256C144.187 172.237 144.187 172.215 144.193 172.195L144.873 156.974C144.873 156.963 144.875 156.953 144.88 156.943C144.884 156.934 144.89 156.925 144.898 156.919C144.905 156.912 144.914 156.906 144.924 156.903C144.934 156.9 144.945 156.898 144.955 156.899H191.011C191.02 156.895 191.029 156.893 191.039 156.893C191.048 156.893 191.057 156.895 191.066 156.899C191.071 156.907 191.073 156.917 191.073 156.926C191.073 156.936 191.071 156.945 191.066 156.953L190.399 172.209C190.391 172.225 190.378 172.238 190.363 172.246C190.347 172.255 190.329 172.258 190.311 172.256ZM144.336 172.094H190.229L190.909 157.034H145.016L144.336 172.094Z" fill="white"/>
<path d="M168.625 115.569H137.875L137.624 121.255H168.366L168.625 115.569Z" fill="#FDBF21"/>
<path d="M192.514 49.5556C192.338 53.2506 191.015 56.801 188.727 59.7193C187.032 61.9237 184.852 63.7133 182.353 64.9507C179.854 66.1881 177.103 66.8404 174.311 66.8576C172.054 66.8747 169.818 66.4328 167.74 65.5591C165.662 64.6855 163.786 63.3985 162.228 61.7776C160.67 60.1567 159.462 58.2361 158.68 56.1342C157.897 54.0322 157.556 51.7934 157.678 49.5556C157.917 44.9121 159.933 40.5347 163.314 37.3186C166.696 34.1025 171.186 32.2907 175.868 32.2537C178.126 32.2328 180.365 32.672 182.445 33.5441C184.526 34.4163 186.404 35.7029 187.964 37.3244C189.524 38.9459 190.733 40.868 191.515 42.9717C192.298 45.0755 192.638 47.3163 192.514 49.5556Z" fill="white"/>
<path d="M194.152 35.8735C194.108 36.856 193.756 37.8003 193.146 38.5748C192.694 39.1603 192.114 39.6356 191.449 39.9645C190.785 40.2934 190.053 40.4671 189.311 40.4725C188.591 40.4768 187.882 40.3061 187.244 39.9753C186.606 39.6445 186.06 39.1637 185.652 38.5748C185.113 37.779 184.846 36.8318 184.891 35.8735C184.956 34.6406 185.493 33.4791 186.392 32.6257C187.29 31.7724 188.482 31.2916 189.725 31.2812C190.325 31.2758 190.92 31.3924 191.472 31.6238C192.025 31.8552 192.524 32.1965 192.939 32.6268C193.353 33.057 193.675 33.567 193.884 34.1254C194.092 34.6838 194.184 35.2787 194.152 35.8735Z" fill="#FDBF21"/>
<path d="M146.383 96.9165C146.35 97.4607 146.111 97.9724 145.713 98.3484C145.316 98.7243 144.79 98.9366 144.241 98.9425C143.976 98.9457 143.713 98.8948 143.468 98.793C143.224 98.6912 143.003 98.5408 142.82 98.3509C142.636 98.161 142.494 97.9357 142.401 97.689C142.309 97.4423 142.268 97.1794 142.282 96.9165C142.312 96.3712 142.55 95.8577 142.948 95.4811C143.346 95.1045 143.874 94.8932 144.424 94.8905C144.689 94.8884 144.952 94.9399 145.195 95.042C145.439 95.1442 145.66 95.2947 145.843 95.4843C146.027 95.674 146.169 95.8989 146.262 96.1451C146.355 96.3914 146.396 96.6539 146.383 96.9165Z" fill="black"/>
<path d="M155.549 96.9165C155.518 97.4613 155.28 97.9739 154.882 98.3502C154.484 98.7265 153.957 98.9383 153.407 98.9425C153.143 98.9447 152.881 98.8932 152.637 98.791C152.394 98.6888 152.174 98.5382 151.991 98.3484C151.808 98.1586 151.666 97.9337 151.574 97.6874C151.482 97.4412 151.442 97.1788 151.456 96.9165C151.485 96.3724 151.722 95.8598 152.119 95.4834C152.516 95.1069 153.042 94.8949 153.591 94.8905C153.856 94.8874 154.119 94.9383 154.363 95.0401C154.608 95.1418 154.829 95.2923 155.012 95.4822C155.196 95.6721 155.338 95.8973 155.43 96.1441C155.523 96.3908 155.563 96.6537 155.549 96.9165Z" fill="black"/>
<path d="M164.722 96.9165C164.691 97.4613 164.452 97.9739 164.055 98.3502C163.657 98.7265 163.13 98.9383 162.58 98.9425C162.315 98.9447 162.053 98.8931 161.809 98.791C161.565 98.6889 161.345 98.5384 161.161 98.3487C160.978 98.1591 160.836 97.9342 160.743 97.6879C160.65 97.4417 160.609 97.1792 160.622 96.9165C160.653 96.3718 160.892 95.8592 161.289 95.4829C161.687 95.1066 162.214 94.8948 162.764 94.8905C163.029 94.8874 163.292 94.9383 163.536 95.0401C163.781 95.1418 164.001 95.2923 164.185 95.4822C164.369 95.6721 164.511 95.8973 164.603 96.1441C164.696 96.3908 164.736 96.6537 164.722 96.9165Z" fill="black"/>
<path d="M144.839 131.183C144.806 131.727 144.567 132.239 144.169 132.615C143.772 132.991 143.246 133.203 142.697 133.209C142.432 133.211 142.169 133.159 141.925 133.057C141.682 132.955 141.461 132.805 141.278 132.615C141.094 132.425 140.952 132.2 140.859 131.954C140.766 131.708 140.725 131.445 140.738 131.183C140.769 130.638 141.008 130.125 141.406 129.749C141.804 129.373 142.331 129.161 142.88 129.157C143.145 129.155 143.407 129.206 143.651 129.308C143.895 129.41 144.116 129.561 144.299 129.751C144.482 129.94 144.625 130.165 144.718 130.411C144.81 130.658 144.852 130.92 144.839 131.183Z" fill="black"/>
<path d="M154.006 131.183C153.975 131.726 153.737 132.238 153.34 132.614C152.944 132.99 152.419 133.203 151.87 133.209C151.605 133.212 151.342 133.161 151.098 133.059C150.854 132.957 150.633 132.807 150.449 132.617C150.266 132.427 150.123 132.202 150.031 131.955C149.938 131.709 149.898 131.446 149.912 131.183C149.943 130.638 150.182 130.125 150.58 129.749C150.977 129.373 151.505 129.161 152.054 129.157C152.318 129.155 152.581 129.206 152.824 129.308C153.068 129.41 153.288 129.561 153.471 129.751C153.653 129.941 153.795 130.166 153.887 130.412C153.979 130.658 154.019 130.92 154.006 131.183Z" fill="black"/>
<path d="M163.199 131.183C163.168 131.727 162.929 132.24 162.531 132.616C162.133 132.993 161.606 133.204 161.057 133.209C160.792 133.21 160.53 133.158 160.287 133.055C160.043 132.953 159.823 132.802 159.64 132.613C159.457 132.423 159.314 132.199 159.221 131.953C159.128 131.707 159.086 131.445 159.098 131.183C159.131 130.639 159.37 130.127 159.768 129.751C160.165 129.375 160.691 129.163 161.24 129.157C161.505 129.154 161.768 129.204 162.013 129.306C162.257 129.408 162.478 129.558 162.662 129.748C162.845 129.938 162.987 130.164 163.08 130.41C163.172 130.657 163.213 130.92 163.199 131.183Z" fill="black"/>
<path d="M172.351 131.183C172.319 131.727 172.08 132.239 171.682 132.615C171.285 132.991 170.758 133.203 170.209 133.209C169.945 133.21 169.683 133.158 169.44 133.055C169.196 132.953 168.976 132.802 168.793 132.613C168.61 132.423 168.467 132.199 168.374 131.953C168.281 131.707 168.239 131.445 168.251 131.183C168.284 130.639 168.523 130.127 168.92 129.751C169.318 129.375 169.844 129.163 170.393 129.157C170.658 129.155 170.92 129.206 171.164 129.308C171.408 129.41 171.629 129.561 171.812 129.751C171.995 129.94 172.138 130.165 172.231 130.411C172.323 130.658 172.364 130.92 172.351 131.183Z" fill="black"/>
<path d="M181.559 131.183C181.526 131.727 181.287 132.239 180.89 132.615C180.492 132.991 179.966 133.203 179.417 133.209C179.152 133.212 178.889 133.161 178.645 133.059C178.4 132.957 178.179 132.807 177.996 132.617C177.812 132.427 177.67 132.202 177.577 131.955C177.485 131.709 177.445 131.446 177.459 131.183C177.49 130.638 177.728 130.125 178.126 129.749C178.524 129.373 179.051 129.161 179.601 129.157C179.865 129.155 180.128 129.206 180.372 129.308C180.616 129.41 180.836 129.561 181.019 129.751C181.203 129.94 181.345 130.165 181.438 130.411C181.531 130.658 181.572 130.92 181.559 131.183Z" fill="black"/>
<path d="M180.167 48.6546C183.014 45.8904 183.165 41.4598 180.505 38.7585C177.845 36.0572 173.381 36.1082 170.535 38.8724C167.689 41.6365 167.538 46.0671 170.198 48.7684C172.858 51.4697 177.321 51.4187 180.167 48.6546Z" fill="#FDBF21"/>
<path d="M188.726 59.7193C187.032 61.9237 184.851 63.7133 182.352 64.9507C179.853 66.1881 177.102 66.8404 174.31 66.8576C171.602 66.8804 168.93 66.2412 166.53 64.9963C164.13 63.7515 162.075 61.9392 160.547 59.7193C163.852 56.4508 169.081 54.3167 174.874 54.3167C180.668 54.3167 185.714 56.4508 188.726 59.7193Z" fill="#FDBF21"/>
<path opacity="0.1" d="M180.167 48.6546C183.014 45.8904 183.165 41.4598 180.505 38.7585C177.845 36.0572 173.381 36.1082 170.535 38.8724C167.689 41.6365 167.538 46.0671 170.198 48.7684C172.858 51.4697 177.321 51.4187 180.167 48.6546Z" fill="white"/>
<path opacity="0.1" d="M188.726 59.7193C187.032 61.9237 184.851 63.7133 182.352 64.9507C179.853 66.1881 177.102 66.8404 174.31 66.8576C171.602 66.8804 168.93 66.2412 166.53 64.9963C164.13 63.7515 162.075 61.9392 160.547 59.7193C163.852 56.4508 169.081 54.3167 174.874 54.3167C180.668 54.3167 185.714 56.4508 188.726 59.7193Z" fill="white"/>
<path d="M88.6778 106.324C88.0318 107.729 87.3518 109.275 86.7602 110.774C86.1686 112.274 85.5634 113.82 85.0398 115.36C83.9707 118.394 83.1564 121.511 82.6054 124.679L82.4558 125.672C82.4415 125.842 82.4576 126.014 82.5034 126.179C82.6638 126.738 82.9166 127.268 83.2514 127.745C84.1246 128.982 85.1376 130.115 86.2706 131.122C87.465 132.225 88.718 133.265 90.0242 134.235C91.3298 135.235 92.7034 136.207 94.0566 137.126L92.785 139.496C89.5537 138.098 86.4867 136.352 83.639 134.289C82.1197 133.189 80.7485 131.9 79.559 130.453C78.8539 129.592 78.304 128.617 77.9338 127.57C77.7185 126.916 77.6083 126.232 77.6074 125.544C77.6074 125.382 77.6074 125.145 77.6074 125.03V124.7L77.6754 124.024C78.0652 120.506 78.8101 117.035 79.899 113.665C80.4294 112.003 80.9938 110.349 81.6398 108.735C82.2858 107.121 82.9522 105.54 83.775 103.899L88.6778 106.324Z" fill="#C78E6E"/>
<path d="M93.0988 136.707L97.9064 134.289L96.662 139.53C96.662 139.53 93.364 140.448 91.834 138.855L93.0988 136.707Z" fill="#C78E6E"/>
<path d="M102.306 135.147L101.028 139.483L96.6621 139.53L97.9065 134.289L102.306 135.147Z" fill="#C78E6E"/>
<path d="M109.092 81.0396C109.349 81.9755 109.707 82.8812 110.16 83.7409C110.027 83.8898 109.857 84.0004 109.667 84.061C109.476 84.1217 109.273 84.1301 109.078 84.0853L109.092 81.0396Z" fill="#DF5753"/>
<path d="M108.949 81.0801C109.231 81.0801 109.459 80.7324 109.459 80.3035C109.459 79.8746 109.231 79.5269 108.949 79.5269C108.668 79.5269 108.439 79.8746 108.439 80.3035C108.439 80.7324 108.668 81.0801 108.949 81.0801Z" fill="black"/>
<path d="M108.799 79.5539L109.833 79.2635C109.833 79.2635 109.33 80.0604 108.799 79.5539Z" fill="black"/>
<path d="M95.8113 85.9965C96.4301 89.1368 97.049 94.8973 94.8322 96.9976C94.8322 96.9976 95.7025 100.185 101.585 100.185C108.051 100.185 104.672 96.9976 104.672 96.9976C101.143 96.1602 101.231 93.5602 101.85 91.1155L95.8113 85.9965Z" fill="#C78E6E"/>
<path d="M94.0911 78.838C94.4175 84.0853 94.4447 86.3139 97.1103 89.0085C101.129 93.0604 107.548 91.5207 108.806 86.3071C109.942 81.5798 109.221 73.8 104.046 71.7133C102.91 71.2485 101.674 71.0793 100.454 71.2215C99.2336 71.3637 98.0702 71.8127 97.0735 72.526C96.0769 73.2393 95.2799 74.1933 94.758 75.2978C94.2361 76.4023 94.0066 77.6208 94.0911 78.838Z" fill="#C78E6E"/>
<path d="M94.6152 72.9356C91.9632 73.8945 88.4272 73.1787 89.8144 81.3029C91.2832 89.9066 89.0256 92.7362 89.0256 92.7362C89.0256 92.7362 99.0828 94.8635 109.351 92.6079C109.351 92.6079 106.216 87.1648 107.093 83.1533C108.215 78.0883 107.331 76.2177 107.331 76.2177C107.331 76.2177 98.3416 71.5849 94.6152 72.9356Z" fill="black"/>
<path d="M105.834 81.5731C105.837 82.5708 106.125 83.5473 106.664 84.3892C107.385 85.4833 108.235 85.0645 108.446 83.903C108.636 82.8832 108.493 81.0801 107.575 80.3778C106.657 79.6754 105.848 80.3642 105.834 81.5731Z" fill="#C78E6E"/>
<path d="M92.3099 73.8203C91.5483 71.693 95.1795 68.4176 102.863 69.7683C110.547 71.119 110.881 77.4738 110.881 77.4738L109.33 75.6369L109.398 77.5684L101.503 79.0743L92.3099 73.8203Z" fill="black"/>
<path d="M92.9627 97.3555C92.9174 97.0472 92.995 96.7334 93.1792 96.4811C93.3634 96.2288 93.6395 96.0579 93.9487 96.0049C96.3423 95.6132 101.782 94.8163 104.516 95.1945C106.556 95.4781 107.086 96.6532 107.175 97.6189C107.189 97.788 107.166 97.9581 107.108 98.1177C107.05 98.2773 106.958 98.4228 106.839 98.5444C106.72 98.6659 106.576 98.7607 106.417 98.8224C106.258 98.8841 106.087 98.9113 105.917 98.902L94.0983 98.3753C93.8197 98.3613 93.5545 98.2522 93.3476 98.0663C93.1406 97.8805 93.0047 97.6294 92.9627 97.3555Z" fill="#FDBF21"/>
<path opacity="0.6" d="M92.9627 97.3555C92.9174 97.0472 92.995 96.7334 93.1792 96.4811C93.3634 96.2288 93.6395 96.0579 93.9487 96.0049C96.3423 95.6132 101.782 94.8163 104.516 95.1945C106.556 95.4781 107.086 96.6532 107.175 97.6189C107.189 97.788 107.166 97.9581 107.108 98.1177C107.05 98.2773 106.958 98.4228 106.839 98.5444C106.72 98.6659 106.576 98.7607 106.417 98.8224C106.258 98.8841 106.087 98.9113 105.917 98.902L94.0983 98.3753C93.8197 98.3613 93.5545 98.2522 93.3476 98.0663C93.1406 97.8805 93.0047 97.6294 92.9627 97.3555Z" fill="black"/>
<path d="M99.7959 215.336L104.182 218.361L111.519 208.481L107.133 205.462L99.7959 215.336Z" fill="#C78E6E"/>
<path d="M89.5695 215.14L94.2003 217.76L100.694 207.313L96.0635 204.692L89.5695 215.14Z" fill="#C78E6E"/>
<path d="M111.513 208.481L107.732 213.573L103.346 210.554L107.127 205.462L111.513 208.481Z" fill="#CF6F64"/>
<path d="M96.0557 204.692L100.693 207.319L97.3477 212.702L92.7101 210.075L96.0557 204.692Z" fill="#CF6F64"/>
<path d="M103.495 130.339C103.495 130.339 120.617 151.767 117.401 172.263C114.81 188.815 99.7822 211.23 99.7822 211.23L92.717 207.745C97.697 197.835 101.947 187.579 105.433 177.058C106.508 173.792 106.822 170.325 106.351 166.921C105.879 163.517 104.636 160.263 102.713 157.406C94.0362 144.824 80.137 152.314 89.487 130.339H103.495Z" fill="#FDBF21"/>
<path opacity="0.6" d="M103.495 130.339C103.495 130.339 120.617 151.767 117.401 172.263C114.81 188.815 99.7822 211.23 99.7822 211.23L92.717 207.745C97.697 197.835 101.947 187.579 105.433 177.058C106.508 173.792 106.822 170.325 106.351 166.921C105.879 163.517 104.636 160.263 102.713 157.406C94.0362 144.824 80.137 152.314 89.487 130.339H103.495Z" fill="black"/>
<path opacity="0.4" d="M111.894 144.102L109.405 141.644C109.405 141.839 114.226 171.399 115.579 179.705C116.378 177.279 116.989 174.795 117.409 172.277C119 162.221 115.675 151.949 111.894 144.102Z" fill="black"/>
<path d="M111.139 130.339C111.139 130.339 131.757 157.271 132.342 173.418C132.825 186.924 109.902 213.093 109.902 213.093L103.238 208.812C103.238 208.812 116.654 190.227 120.034 175.045C118.728 159.999 91.1201 130.339 91.1201 130.339H111.139Z" fill="#FDBF21"/>
<path opacity="0.6" d="M111.139 130.339C111.139 130.339 131.757 157.271 132.342 173.418C132.825 186.924 109.902 213.093 109.902 213.093L103.238 208.812C103.238 208.812 116.654 190.227 120.034 175.045C118.728 159.999 91.1201 130.339 91.1201 130.339H111.139Z" fill="black"/>
<path d="M85.6315 98.1997C83.4283 98.7197 81.3135 106.675 81.3135 106.675L89.9291 112.388C89.9291 112.388 92.7987 106.094 91.7923 103.339C90.7519 100.469 88.3991 97.5446 85.6315 98.1997Z" fill="#FDBF21"/>
<path opacity="0.2" d="M87.3182 103.325L86.7198 110.261L89.9226 112.395C90.8069 110.418 91.4617 108.347 91.8742 106.223L87.3182 103.325Z" fill="black"/>
<path d="M113.689 98.355C113.689 98.355 116.232 99.2396 111.139 130.332H89.4743C89.8415 121.553 89.8483 116.15 85.6323 98.1996C88.6658 97.5788 91.7407 97.177 94.8327 96.9975C98.1083 96.7643 101.397 96.7643 104.672 96.9975C108.902 97.3825 113.689 98.355 113.689 98.355Z" fill="#FDBF21"/>
<path d="M115.892 103.325C116.381 104.676 116.898 106.128 117.442 107.526C117.986 108.924 118.503 110.362 119.054 111.781L120.72 116.022L121.141 117.082L121.359 117.609L121.461 117.872C121.461 117.919 121.461 117.919 121.461 117.913C121.337 117.739 121.174 117.595 120.985 117.494C120.716 117.337 120.413 117.246 120.101 117.23C119.842 117.222 119.584 117.271 119.346 117.372C119.033 117.514 119.033 117.575 119.04 117.568C119.097 117.523 119.147 117.471 119.19 117.413C119.566 116.922 119.892 116.395 120.162 115.839C120.482 115.218 120.788 114.556 121.094 113.888C121.692 112.537 122.243 111.139 122.794 109.728C123.345 108.316 123.868 106.891 124.378 105.453L125.929 101.144L128.546 101.819C128.03 104.899 127.363 107.897 126.561 110.95C126.173 112.469 125.718 113.975 125.201 115.495C124.942 116.258 124.657 117.014 124.33 117.791C123.99 118.634 123.571 119.443 123.079 120.209C122.898 120.466 122.698 120.71 122.481 120.938C122.134 121.311 121.712 121.607 121.243 121.809C120.827 121.987 120.377 122.07 119.924 122.052C119.417 122.034 118.924 121.887 118.489 121.627C117.977 121.309 117.552 120.871 117.252 120.351C117.15 120.175 117.061 119.999 117 119.871L116.871 119.614L116.613 119.088L116.096 118.041C115.416 116.636 114.736 115.218 114.144 113.793C113.553 112.368 112.927 110.923 112.342 109.471C111.757 108.019 111.234 106.567 110.737 105L115.892 103.325Z" fill="#C78E6E"/>
<path d="M113.689 98.355C116.293 98.9696 119.224 106.614 119.224 106.614L111.479 113.158C111.479 113.158 106.467 104.825 107.48 102.076C108.534 99.2127 110.289 97.5514 113.689 98.355Z" fill="#FDBF21"/>
<path d="M127.159 98.7265L129.879 96.4709L131.77 99.3951L130.376 101.833C130.376 101.833 128.159 103.859 126.201 102.826C125.89 102.132 125.815 101.356 125.988 100.617C126.161 99.8768 126.572 99.2132 127.159 98.7265Z" fill="#C78E6E"/>
<path d="M134.789 96.4776L134.585 97.2137L130.28 97.9296L129.859 96.4709L134.789 96.4776Z" fill="#C78E6E"/>
<path d="M110.432 213.438L102.666 208.454L104.06 206.05L112.785 211.378L110.432 213.438Z" fill="#FDBF21"/>
<path d="M97.239 217.409C96.5577 217.326 95.903 217.096 95.3214 216.734C95.2974 216.725 95.2766 216.71 95.2619 216.689C95.2472 216.669 95.2393 216.644 95.2393 216.619C95.2393 216.593 95.2472 216.569 95.2619 216.548C95.2766 216.528 95.2974 216.512 95.3214 216.504C95.5322 216.436 97.3614 215.876 97.8918 216.308C97.9515 216.357 97.9967 216.421 98.023 216.494C98.0494 216.566 98.0557 216.644 98.0414 216.72C98.032 216.842 97.9914 216.959 97.9236 217.06C97.8558 217.162 97.7629 217.245 97.6538 217.301C97.5265 217.37 97.3841 217.407 97.239 217.409ZM95.709 216.666C96.559 217.098 97.239 217.254 97.5654 217.091C97.6365 217.052 97.6963 216.996 97.7392 216.927C97.782 216.859 97.8065 216.78 97.8102 216.7C97.8102 216.592 97.8102 216.544 97.749 216.517C97.4634 216.288 96.4434 216.463 95.6954 216.666H95.709Z" fill="black"/>
<path d="M95.3695 216.781C95.3337 216.78 95.2994 216.766 95.2743 216.74C95.2642 216.722 95.2589 216.701 95.2589 216.68C95.2589 216.658 95.2642 216.637 95.2743 216.619C95.2743 216.558 95.7163 215.092 96.4099 214.762C96.4985 214.721 96.5948 214.701 96.6921 214.701C96.7895 214.701 96.8857 214.721 96.9743 214.762C97.0698 214.792 97.1525 214.852 97.2092 214.934C97.2659 215.016 97.2933 215.115 97.2871 215.214C97.2395 215.822 95.9951 216.659 95.4239 216.801L95.3695 216.781ZM96.6887 214.937C96.6226 214.939 96.5577 214.955 96.4983 214.984C96.0767 215.187 95.7299 215.977 95.5599 216.457C96.1583 216.207 96.9811 215.545 97.0083 215.174C97.0083 215.113 97.0083 215.038 96.8519 214.971C96.8011 214.944 96.7459 214.925 96.6887 214.917V214.937Z" fill="black"/>
<path d="M106.943 220.326C106.175 220.326 105.107 219.347 104.522 218.746C104.507 218.725 104.499 218.701 104.499 218.675C104.499 218.65 104.507 218.625 104.522 218.604C104.536 218.582 104.555 218.565 104.577 218.553C104.6 218.541 104.626 218.535 104.651 218.537C104.923 218.537 107.283 218.888 107.616 219.55C107.651 219.609 107.67 219.677 107.67 219.745C107.67 219.814 107.651 219.882 107.616 219.941C107.566 220.044 107.491 220.133 107.397 220.199C107.303 220.265 107.193 220.307 107.079 220.319L106.943 220.326ZM104.971 218.841C105.828 219.664 106.583 220.124 107.011 220.07C107.086 220.06 107.157 220.032 107.219 219.988C107.281 219.945 107.331 219.887 107.365 219.82C107.38 219.797 107.388 219.77 107.388 219.742C107.388 219.715 107.38 219.688 107.365 219.664C107.188 219.3 105.93 218.989 104.971 218.841Z" fill="black"/>
<path d="M105.046 218.807C104.893 218.811 104.74 218.8 104.59 218.773C104.569 218.77 104.549 218.761 104.533 218.748C104.516 218.735 104.503 218.718 104.495 218.699C104.485 218.679 104.479 218.657 104.479 218.635C104.479 218.612 104.485 218.59 104.495 218.57C104.536 218.523 105.454 217.422 106.324 217.348C106.57 217.329 106.815 217.407 107.004 217.564C107.269 217.794 107.256 217.996 107.188 218.125C107.018 218.584 105.841 218.807 105.046 218.807ZM104.869 218.557C105.63 218.597 106.848 218.348 107.004 218.017C107.004 218.017 107.058 217.909 106.882 217.76C106.811 217.699 106.729 217.654 106.64 217.626C106.551 217.598 106.458 217.588 106.365 217.598C105.779 217.76 105.256 218.098 104.869 218.564V218.557Z" fill="black"/>
<path d="M95.5531 216.051L89.7867 214.431C89.6873 214.401 89.5803 214.408 89.4862 214.452C89.3921 214.496 89.3175 214.572 89.2767 214.667L87.3319 219.009C87.2863 219.121 87.2648 219.24 87.269 219.36C87.2732 219.48 87.3029 219.598 87.3562 219.706C87.4096 219.814 87.4852 219.909 87.5783 219.986C87.6714 220.062 87.7798 220.119 87.8963 220.151C89.9363 220.677 90.9155 220.826 93.4519 221.549C95.0159 221.981 97.2463 222.784 99.4019 223.392C101.558 224 102.278 221.913 101.442 221.468C97.6611 219.482 97.3619 218.091 96.3283 216.605C96.1432 216.336 95.8689 216.14 95.5531 216.051Z" fill="#FDBF21"/>
<path d="M104.679 217.956L99.7556 214.579C99.6721 214.519 99.5692 214.491 99.4664 214.501C99.3637 214.511 99.2681 214.558 99.198 214.633L95.934 218.118C95.8544 218.208 95.7951 218.314 95.7599 218.428C95.7248 218.543 95.7146 218.664 95.73 218.783C95.7454 218.901 95.7862 219.016 95.8495 219.118C95.9128 219.22 95.9972 219.307 96.0972 219.374C97.8312 220.529 98.7288 220.995 100.898 222.487C102.258 223.406 104.89 225.445 106.726 226.715C108.562 227.984 109.928 226.242 109.276 225.553C106.352 222.454 105.712 220.509 105.23 218.746C105.146 218.426 104.951 218.146 104.679 217.956Z" fill="#FDBF21"/>
<path d="M100.687 211.675L91.8134 207.292L92.7313 204.902L102.211 209.521L100.687 211.675Z" fill="#FDBF21"/>
<path d="M89.1479 129.069L88.3999 131.014C88.3251 131.163 88.5019 131.318 88.7535 131.318H111.248C111.445 131.318 111.608 131.223 111.622 131.102L111.812 129.17C111.812 129.042 111.656 128.927 111.445 128.927H89.5015C89.4354 128.921 89.3688 128.931 89.3073 128.955C89.2458 128.98 89.1911 129.019 89.1479 129.069Z" fill="#FDBF21"/>
<path opacity="0.4" d="M89.1479 129.069L88.3999 131.014C88.3251 131.163 88.5019 131.318 88.7535 131.318H111.248C111.445 131.318 111.608 131.223 111.622 131.102L111.812 129.17C111.812 129.042 111.656 128.927 111.445 128.927H89.5015C89.4354 128.921 89.3688 128.931 89.3073 128.955C89.2458 128.98 89.1911 129.019 89.1479 129.069Z" fill="white"/>
<path d="M92.69 131.507H92.0985C91.9829 131.507 91.8944 131.446 91.9012 131.372L92.18 128.866C92.18 128.799 92.2889 128.738 92.4045 128.738H92.996C93.1116 128.738 93.2001 128.799 93.1933 128.866L92.9145 131.372C92.9077 131.446 92.8056 131.507 92.69 131.507Z" fill="#FDBF21"/>
<path d="M106.562 131.507H105.977C105.861 131.507 105.773 131.446 105.78 131.372L106.052 128.866C106.052 128.799 106.167 128.738 106.283 128.738H106.868C106.983 128.738 107.079 128.799 107.065 128.866L106.793 131.372C106.759 131.446 106.684 131.507 106.562 131.507Z" fill="#FDBF21"/>
<g style="mix-blend-mode:multiply">
<path d="M92.1734 245.874C102.234 245.874 110.391 245.287 110.391 244.564C110.391 243.84 102.234 243.254 92.1734 243.254C82.1123 243.254 73.9562 243.84 73.9562 244.564C73.9562 245.287 82.1123 245.874 92.1734 245.874Z" fill="#F5F5F5"/>
</g>
<path d="M103.271 242.713C100.048 241.781 96.4708 240.586 94.3084 239.337C94.2472 239.296 94.1792 239.276 94.118 239.242V224.75H100.639C101.134 224.721 101.599 224.505 101.939 224.146C102.28 223.788 102.469 223.314 102.469 222.822C102.469 222.329 102.28 221.855 101.939 221.497C101.599 221.138 101.134 220.923 100.639 220.894H94.152V154.833H90.2352V220.894H83.7548C83.4901 220.878 83.2251 220.916 82.976 221.006C82.7268 221.096 82.4988 221.236 82.3059 221.416C82.113 221.597 81.9593 221.814 81.8542 222.056C81.7492 222.298 81.695 222.558 81.695 222.822C81.695 223.085 81.7492 223.345 81.8542 223.587C81.9593 223.829 82.113 224.047 82.3059 224.227C82.4988 224.408 82.7268 224.547 82.976 224.637C83.2251 224.727 83.4901 224.765 83.7548 224.75H90.2352V239.222C90.174 239.222 90.1127 239.276 90.0515 239.317C87.8551 240.586 84.3056 241.781 81.0824 242.693C80.8646 242.759 80.6777 242.899 80.5553 243.09C80.433 243.28 80.3833 243.508 80.4154 243.731C80.4474 243.955 80.5591 244.16 80.7301 244.309C80.901 244.458 81.1201 244.541 81.3476 244.544H103.006C103.223 244.529 103.429 244.441 103.588 244.293C103.748 244.146 103.852 243.949 103.883 243.735C103.914 243.521 103.87 243.303 103.759 243.117C103.647 242.931 103.475 242.788 103.271 242.713Z" fill="#E0E0E0"/>
<path d="M104.27 148.107H80.0894C78.144 148.107 76.567 149.673 76.567 151.605V158.743C76.567 160.675 78.144 162.241 80.0894 162.241H104.27C106.216 162.241 107.793 160.675 107.793 158.743V151.605C107.793 149.673 106.216 148.107 104.27 148.107Z" fill="#FDBF21"/>
<path d="M79.8651 162.248V163.477C79.8651 164.49 80.9735 165.314 82.3335 165.314H102.054C103.414 165.314 104.522 164.49 104.522 163.477V162.248H79.8651Z" fill="#FDBF21"/>
<path opacity="0.3" d="M79.8651 162.248V163.477C79.8651 164.49 80.9735 165.314 82.3335 165.314H102.054C103.414 165.314 104.522 164.49 104.522 163.477V162.248H79.8651Z" fill="white"/>
</svg>
